<svg id="visual" viewBox="0 0 960 540" width="960" height="540" xmlns="http://www.w3.org/2000/svg" xmlns:xlink="http://www.w3.org/1999/xlink" version="1.1"><rect x="0" y="0" width="960" height="540" fill="#F4FAFC"></rect><defs><linearGradient id="grad1_0" x1="43.8%" y1="0%" x2="100%" y2="100%"><stop offset="14.444444444444446%" stop-color="#f4fafc" stop-opacity="1"></stop><stop offset="85.55555555555554%" stop-color="#f4fafc" stop-opacity="1"></stop></linearGradient></defs><defs><linearGradient id="grad2_0" x1="0%" y1="0%" x2="56.3%" y2="100%"><stop offset="14.444444444444446%" stop-color="#f4fafc" stop-opacity="1"></stop><stop offset="85.55555555555554%" stop-color="#f4fafc" stop-opacity="1"></stop></linearGradient></defs><g transform="translate(960, 0)"><path d="M0 108C-14.6 107.1 -29.3 106.2 -41.3 99.8C-53.4 93.3 -62.9 81.4 -70 70C-77.1 58.6 -81.8 47.9 -87.8 36.4C-93.7 24.8 -100.9 12.4 -108 0L0 0Z" fill="#ff381b"></path></g><g transform="translate(0, 540)"><path d="M0 -108C14.9 -105.1 29.9 -102.3 38.7 -93.3C47.4 -84.4 50 -69.3 60.8 -60.8C71.6 -52.3 90.6 -50.4 99.8 -41.3C109 -32.3 108.5 -16.1 108 0L0 0Z" fill="#ff381b"></path></g></svg>
