<svg id="visual" viewBox="0 0 960 540" width="960" height="540" xmlns="http://www.w3.org/2000/svg" xmlns:xlink="http://www.w3.org/1999/xlink" version="1.1"><rect width="960" height="540" fill="#F4FAFC"></rect><g><g transform="translate(886 233)"><path d="M92.7 -28.7C104.3 5.6 87 50.8 53.3 75.9C19.5 101.1 -30.7 106.2 -63.9 83.2C-97.1 60.2 -113.2 9.1 -99.7 -27.8C-86.3 -64.6 -43.1 -87.2 -1.3 -86.8C40.6 -86.3 81.1 -62.9 92.7 -28.7Z" stroke="#ff381b" fill="none" stroke-width="23"></path></g><g transform="translate(27 314)"><path d="M86.8 -29.8C97.2 3.8 79.8 44.9 49.3 66.8C18.7 88.8 -25 91.7 -56.6 70.4C-88.2 49.2 -107.6 4 -96.2 -31.1C-84.8 -66.1 -42.4 -90.9 -2.1 -90.2C38.2 -89.5 76.4 -63.4 86.8 -29.8Z" stroke="#ff381b" fill="none" stroke-width="23"></path></g><g transform="translate(419 162)"><path d="M34.6 -11.6C39.5 3.8 34.4 22.1 22 31.4C9.5 40.7 -10.3 41.1 -23.6 31.6C-36.9 22.2 -43.7 2.9 -38.6 -12.7C-33.6 -28.2 -16.8 -40 -1 -39.7C14.9 -39.4 29.7 -26.9 34.6 -11.6Z" stroke="#ff381b" fill="none" stroke-width="23"></path></g></g></svg>