<?xml version="1.0"?>
<svg xmlns:rdf="http://www.w3.org/1999/02/22-rdf-syntax-ns#" xmlns="http://www.w3.org/2000/svg"
  xmlns:cc="http://creativecommons.org/ns#" xmlns:dc="http://purl.org/dc/elements/1.1/"
  xmlns:svg="http://www.w3.org/2000/svg" xmlns:inkscape="http://www.inkscape.org/namespaces/inkscape"
  xmlns:sodipodi="http://sodipodi.sourceforge.net/DTD/sodipodi-0.dtd" xmlns:ns1="http://sozi.baierouge.fr"
  xmlns:xlink="http://www.w3.org/1999/xlink" id="svg1650" viewBox="0 0 419.14 403.6" version="1.1">
  <g id="layer1" transform="translate(-119,-256.3)">
    <path id="path1575" transform="translate(119,256.3)" fill="#222222"
      d="M 281.8 0 c -0.9 0 -1.8 0.1 -2.7 0.1 c -35.8 6.2 -55.5 44.1 -58.4 77.5 c -4.2 30.3 9.2 69.3 42.5 76.1 c 4.8 0.9 9.8 0.5 14.6 -0.8 c 40.1 -13.4 58 -60.9 52.2 -100.2 c -1.7 -25.4 -20.8 -53 -48.2 -52.7 z m -151.9 1.6 c -22.3 0.5 -39.6 23.1 -43.2 44.4 c -7.4 42.1 11.7 94.3 55.5 107.7 c 4.1 0.9 8.3 1 12.5 0.3 c 29.6 -4.9 42.2 -38.1 40.9 -65 c -0.9 -35.4 -19.3 -76.3 -56 -86.2 c -3.4 -0.9 -6.6 -1.3 -9.8 -1.2 z m 248.9 119.5 c -38.5 2.3 -65 40.8 -68.7 76.7 c -5.1 25.9 8.7 60.5 38.3 62.6 c 41.2 -0.5 69.3 -44.5 70.5 -82.4 c 2.6 -25.1 -12.2 -55.5 -40 -56.9 z m -337.3 8.5 c -16.4 -0.1 -32.5 9.7 -37.9 26.3 c -14.3 44.6 14.4 101 61.6 110.4 c 19.7 3.4 37 -11.8 41.9 -30 c 10.3 -39 -10.9 -84.2 -46.9 -101.8 c -5.9 -3.3 -12.3 -4.9 -18.8 -4.9 z m 172.8 79.9 c -32.1 0.1 -64.8 16.4 -85.6 40.7 c -22.5 28.3 -40.9 61.2 -48.1 96.9 c -8.8 25.7 11.1 55.3 38.6 55.5 c 33.1 0.9 61.5 -21.8 94.3 -23.5 c 27.9 -4.3 52.9 10.3 77.9 19.8 c 21.4 9.1 50.9 5.6 61.8 -17.4 c 8.6 -23.4 -4 -48.4 -14.5 -69.2 c -21.3 -33.8 -44.2 -69.2 -79.1 -90.3 c -14 -8.7 -29.6 -12.5 -45.3 -12.5 z" />
  </g>
  <metadata>
    <rdf:RDF>
      <cc:Work>
        <dc:format>image/svg+xml</dc:format>
        <dc:type rdf:resource="http://purl.org/dc/dcmitype/StillImage" />
        <cc:license rdf:resource="http://creativecommons.org/licenses/publicdomain/" />
        <dc:publisher>
          <cc:Agent rdf:about="http://openclipart.org/">
            <dc:title>Openclipart</dc:title>
          </cc:Agent>
        </dc:publisher>
        <dc:title>Homers hounds</dc:title>
        <dc:date>2014-06-07T14:12:23</dc:date>
        <dc:description>paw prints</dc:description>
        <dc:source>https://openclipart.org/detail/194058/homers-hounds-by-rencharic-194058</dc:source>
        <dc:creator>
          <cc:Agent>
            <dc:title>rencharic</dc:title>
          </cc:Agent>
        </dc:creator>
        <dc:subject>
          <rdf:Bag>
            <rdf:li>homERs houNds</rdf:li>
          </rdf:Bag>
        </dc:subject>
      </cc:Work>
      <cc:License rdf:about="http://creativecommons.org/licenses/publicdomain/">
        <cc:permits rdf:resource="http://creativecommons.org/ns#Reproduction" />
        <cc:permits rdf:resource="http://creativecommons.org/ns#Distribution" />
        <cc:permits rdf:resource="http://creativecommons.org/ns#DerivativeWorks" />
      </cc:License>
    </rdf:RDF>
  </metadata>
</svg>