<svg id="visual" viewBox="0 0 960 540" width="960" height="540" xmlns="http://www.w3.org/2000/svg" xmlns:xlink="http://www.w3.org/1999/xlink" version="1.1"><rect x="0" y="0" width="960" height="540" fill="#F4FAFC"></rect><path d="M0 43L16 58.3C32 73.7 64 104.3 96 125C128 145.7 160 156.3 192 151C224 145.7 256 124.3 288 105.5C320 86.7 352 70.3 384 62.2C416 54 448 54 480 62.8C512 71.7 544 89.3 576 98.5C608 107.7 640 108.3 672 104.7C704 101 736 93 768 95.8C800 98.7 832 112.3 864 119.7C896 127 928 128 944 128.5L960 129" fill="none" stroke-linecap="round" stroke-linejoin="miter" stroke="#ff381b" stroke-width="40"></path></svg>